<?xml version="1.0" standalone="no"?>
<svg viewBox="0 0 200 200" xmlns="http://www.w3.org/2000/svg">
  <path fill="#FFFFFF" d="M39.6,-72.1C50.7,-62.3,58.4,-50.2,61.7,-37.9C65,-25.5,63.8,-12.7,64.3,0.3C64.7,13.3,66.9,26.6,62.2,36.6C57.6,46.6,46.2,53.4,34.7,55.8C23.2,58.1,11.6,56,1.8,52.9C-8.1,49.9,-16.1,45.9,-22.9,40.8C-29.7,35.8,-35.3,29.7,-40,22.7C-44.7,15.7,-48.5,7.9,-55.9,-4.3C-63.3,-16.4,-74.2,-32.8,-72.2,-44.5C-70.3,-56.2,-55.5,-63.3,-41.3,-71.3C-27.1,-79.3,-13.5,-88.2,0.4,-88.9C14.3,-89.6,28.6,-81.9,39.6,-72.1Z" transform="translate(100 100)" />
</svg>


